<svg xmlns="http://www.w3.org/2000/svg" class="svg-icon-store">
    <symbol id="i-facebook" viewBox="0 0 32 32">
       <title>facebook</title> <path d="M19 6h5v-6h-5c-3.86 0-7 3.14-7 7v3h-4v6h4v16h6v-16h5l1-6h-6v-3c0-0.542 0.458-1 1-1z"/> 
    </symbol>
    <symbol id="i-globe" viewBox="0 0 32 32">
      <g id="globe-2"><polygon fill="#515151" points="13.179,6.288 13.179,6.315 13.195,6.295  "/> <title>globe</title> <path d="M15.624,1.028c-7.811,0-14.167,6.355-14.167,14.167c0,7.812,6.356,14.167,14.167,14.167   c7.812,0,14.168-6.354,14.168-14.167C29.792,7.383,23.436,1.028,15.624,1.028z M28.567,15.195c0,0.248-0.022,0.49-0.037,0.735   c-0.091-0.23-0.229-0.53-0.262-0.659c-0.048-0.196-0.341-0.879-0.341-0.879s-0.293-0.39-0.488-0.488   c-0.194-0.098-0.341-0.342-0.683-0.536c-0.342-0.196-0.487-0.293-0.779-0.293c-0.294,0-0.585-0.391-0.928-0.586   c-0.342-0.194-0.39-0.097-0.39-0.097s0.39,0.585,0.39,0.731c0,0.146,0.438,0.39,0.879,0.292c0,0,0.292,0.537,0.438,0.683   c0.146,0.146-0.049,0.293-0.341,0.488c-0.293,0.194-0.244,0.146-0.392,0.292c-0.146,0.146-0.633,0.392-0.78,0.488   c-0.146,0.097-0.731,0.39-1.023,0.097c-0.143-0.141-0.099-0.438-0.195-0.634c-0.098-0.195-1.122-1.707-1.61-2.389   c-0.085-0.12-0.293-0.49-0.438-0.585c-0.146-0.099,0.342-0.099,0.342-0.099s0-0.342-0.049-0.585   c-0.05-0.244,0.049-0.585,0.049-0.585s-0.488,0.292-0.636,0.39c-0.145,0.098-0.292-0.194-0.486-0.439   c-0.195-0.243-0.391-0.537-0.439-0.781c-0.049-0.243,0.244-0.341,0.244-0.341l0.438-0.243c0,0,0.537-0.097,0.879-0.049   c0.341,0.049,0.877,0.098,0.877,0.098s0.146-0.342-0.049-0.488c-0.194-0.146-0.635-0.39-0.83-0.341   c-0.194,0.048,0.097-0.244,0.34-0.439l-0.54-0.098c0,0-0.491,0.244-0.638,0.293c-0.146,0.048-0.4,0.146-0.596,0.39   c-0.194,0.244,0.078,0.585-0.117,0.683c-0.194,0.098-0.326,0.146-0.473,0.194c-0.146,0.049-0.61,0-0.61,0   c-0.504,0-0.181,0.46-0.05,0.623l-0.39-0.476L18.564,8.88c0,0-0.416-0.292-0.611-0.389c-0.195-0.098-0.796-0.439-0.796-0.439   l0.042,0.439l0.565,0.572l0.05,0.013l0.294,0.39l-0.649,0.049V9.129c-0.612-0.148-0.452-0.3-0.521-0.347   c-0.145-0.097-0.484-0.342-0.484-0.342s-0.574,0.098-0.721,0.147c-0.147,0.049-0.188,0.195-0.479,0.292   c-0.294,0.098-0.426,0.244-0.523,0.39s-0.415,0.585-0.608,0.78c-0.196,0.196-0.558,0.146-0.704,0.146   c-0.147,0-0.851-0.195-0.851-0.195V9.173c0,0,0.095-0.464,0.047-0.61l0.427-0.072l0.713-0.147l0.209-0.147l0.3-0.39   c0,0-0.337-0.244-0.094-0.585c0.117-0.164,0.538-0.195,0.733-0.341c0.194-0.146,0.489-0.244,0.489-0.244s0.342-0.292,0.683-0.634   c0,0,0.244-0.147,0.536-0.245c0,0,0.83,0.732,0.977,0.732s0.683-0.341,0.683-0.341s0.146-0.438,0.098-0.585   c-0.049-0.146-0.293-0.634-0.293-0.634s-0.146,0.244-0.292,0.439s-0.244,0.439-0.244,0.439s-0.683-0.047-0.731-0.193   c-0.05-0.147-0.146-0.388-0.196-0.533c-0.047-0.147-0.438-0.142-0.729-0.044c-0.294,0.098,0.047-0.526,0.047-0.526   s0.294-0.368,0.488-0.368s0.635-0.25,0.828-0.298c0.196-0.049,0.783-0.272,1.025-0.272c0.244,0,0.537,0.105,0.684,0.105   s0.731,0,0.731,0l1.023-0.082c0,0,0.879,0.325,0.585,0.521c0,0,0.343,0.211,0.489,0.357c0.137,0.138,0.491-0.127,0.694-0.24   C26.127,6.525,28.567,10.576,28.567,15.195z M5.296,7.563c0,0.195-0.266,0.242,0,0.732c0.34,0.634,0.048,0.927,0.048,0.927   s-0.83,0.585-0.976,0.683c-0.146,0.098-0.536,0.634-0.293,0.487c0.244-0.146,0.536-0.292,0.293,0.098   c-0.244,0.391-0.683,1.024-0.78,1.269s-0.585,0.829-0.585,1.122c0,0.293-0.195,0.879-0.146,1.123   c0.033,0.17-0.075,0.671-0.16,0.877c0.066-2.742,0.989-5.269,2.513-7.336C5.26,7.55,5.296,7.563,5.296,7.563z M6.863,5.693   c1.193-1.101,2.591-1.979,4.133-2.573c-0.152,0.195-0.336,0.395-0.336,0.395s-0.341-0.001-0.976,0.683   C9.051,4.881,9.197,4.686,9.051,4.88S8.953,5.124,8.611,5.369C8.271,5.612,8.124,5.905,8.124,5.905L7.587,6.1L7.149,5.905   c0,0-0.392,0.147-0.343-0.049C6.82,5.804,6.841,5.75,6.863,5.693z M12.709,6.831l-0.194-0.292L12.709,6.1l0.47,0.188V5.417   l0.449-0.243l0.373,0.536l0.574,0.635l-0.381,0.292l-1.016,0.195V6.315L12.709,6.831z M19.051,11.416   c0.114-0.09,0.487,0.146,0.487,0.146s1.219,0.244,1.414,0.39c0.196,0.147,0.537,0.245,0.635,0.392   c0.098,0.146,0.438,0.585,0.486,0.731c0.05,0.146,0.294,0.684,0.343,0.878c0.049,0.195,0.195,0.683,0.341,0.927   c0.146,0.245,0.976,1.317,1.268,1.805l0.88-0.146c0,0-0.099,0.438-0.196,0.585c-0.097,0.146-0.39,0.536-0.536,0.731   c-0.147,0.195-0.341,0.488-0.634,0.731c-0.292,0.243-0.294,0.487-0.439,0.683c-0.146,0.195-0.342,0.634-0.342,0.634   s0.098,0.976,0.146,1.171s-0.341,0.731-0.341,0.731l-0.44,0.44l-0.588,0.779l0.048,0.731c0,0-0.444,0.343-0.689,0.537   c-0.242,0.194-0.204,0.341-0.399,0.537c-0.194,0.194-0.957,0.536-1.152,0.585s-1.271,0.195-1.271,0.195v-0.438l-0.022-0.488   c0,0-0.148-0.585-0.295-0.78s-0.083-0.489-0.327-0.732c-0.244-0.244-0.334-0.438-0.383-0.586c-0.049-0.146,0.053-0.584,0.053-0.584   s0.197-0.537,0.294-0.732c0.098-0.195,0.001-0.487-0.097-0.683s-0.145-0.684-0.145-0.829c0-0.146-0.392-0.391-0.538-0.537   c-0.146-0.146-0.097-0.342-0.097-0.535c0-0.197-0.146-0.635-0.098-0.977c0.049-0.341-0.438-0.098-0.731,0   c-0.293,0.098-0.487-0.098-0.487-0.391s-0.536-0.048-0.878,0.146c-0.343,0.195-0.732,0.195-1.124,0.342   c-0.389,0.146-0.583-0.146-0.583-0.146s-0.343-0.292-0.585-0.439c-0.245-0.146-0.489-0.438-0.685-0.682   c-0.194-0.245-0.683-0.977-0.73-1.268c-0.049-0.294,0-0.49,0-0.831s0-0.536,0.048-0.78c0.049-0.244,0.195-0.537,0.342-0.781   c0.146-0.244,0.683-0.536,0.828-0.634c0.146-0.097,0.488-0.389,0.488-0.585c0-0.195,0.196-0.292,0.292-0.488   c0.099-0.195,0.44-0.682,0.879-0.487c0,0,0.389-0.048,0.535-0.097s0.536-0.194,0.729-0.292c0.195-0.098,0.681-0.144,0.681-0.144   s0.384,0.153,0.53,0.153s0.622-0.085,0.622-0.085s0.22,0.707,0.22,0.854s0.146,0.292,0.391,0.39   C17.44,11.562,18.563,11.807,19.051,11.416z M24.66,20.977c0,0.146-0.049,0.537-0.098,0.732c-0.051,0.195-0.147,0.537-0.195,0.73   c-0.049,0.196-0.293,0.586-0.438,0.684c-0.146,0.098-0.391,0.391-0.536,0.439c-0.146,0.049-0.245-0.342-0.196-0.537   c0.05-0.195,0.293-0.731,0.293-0.731s0.049-0.292,0.097-0.488c0.05-0.194,0.635-0.438,0.635-0.438l0.391-0.732   C24.611,20.635,24.66,20.832,24.66,20.977z M3.015,18.071c0.063,0.016,0.153,0.062,0.28,0.175c0.184,0.16,0.293,0.242,0.537,0.341   c0.243,0.099,0.341,0.243,0.634,0.39c0.293,0.147,0.196,0.05,0.585,0.488c0.391,0.438,0.342,0.438,0.439,0.683   s0.244,0.487,0.342,0.635c0.098,0.146,0.39,0.243,0.536,0.341s0.39,0.195,0.536,0.195c0.147,0,0.586,0.439,0.83,0.487   c0.244,0.05,0.244,0.538,0.244,0.538l-0.244,0.682l-0.196,0.731l0.196,0.585c0,0-0.294,0.245-0.487,0.245   c-0.18,0-0.241,0.114-0.438,0.06C4.949,22.91,3.6,20.638,3.015,18.071z"/></g>
    </symbol>
    <symbol id="i-instagram" viewBox="0 0 32 32">
       <title>instagram</title> <path d="M16 2.881c4.275 0 4.781 0.019 6.462 0.094 1.563 0.069 2.406 0.331 2.969 0.55 0.744 0.288 1.281 0.638 1.837 1.194 0.563 0.563 0.906 1.094 1.2 1.838 0.219 0.563 0.481 1.412 0.55 2.969 0.075 1.688 0.094 2.194 0.094 6.463s-0.019 4.781-0.094 6.463c-0.069 1.563-0.331 2.406-0.55 2.969-0.288 0.744-0.637 1.281-1.194 1.837-0.563 0.563-1.094 0.906-1.837 1.2-0.563 0.219-1.413 0.481-2.969 0.55-1.688 0.075-2.194 0.094-6.463 0.094s-4.781-0.019-6.463-0.094c-1.563-0.069-2.406-0.331-2.969-0.55-0.744-0.288-1.281-0.637-1.838-1.194-0.563-0.563-0.906-1.094-1.2-1.837-0.219-0.563-0.481-1.413-0.55-2.969-0.075-1.688-0.094-2.194-0.094-6.463s0.019-4.781 0.094-6.463c0.069-1.563 0.331-2.406 0.55-2.969 0.288-0.744 0.638-1.281 1.194-1.838 0.563-0.563 1.094-0.906 1.838-1.2 0.563-0.219 1.412-0.481 2.969-0.55 1.681-0.075 2.188-0.094 6.463-0.094zM16 0c-4.344 0-4.887 0.019-6.594 0.094-1.7 0.075-2.869 0.35-3.881 0.744-1.056 0.412-1.95 0.956-2.837 1.85-0.894 0.888-1.438 1.781-1.85 2.831-0.394 1.019-0.669 2.181-0.744 3.881-0.075 1.713-0.094 2.256-0.094 6.6s0.019 4.887 0.094 6.594c0.075 1.7 0.35 2.869 0.744 3.881 0.413 1.056 0.956 1.95 1.85 2.837 0.887 0.887 1.781 1.438 2.831 1.844 1.019 0.394 2.181 0.669 3.881 0.744 1.706 0.075 2.25 0.094 6.594 0.094s4.888-0.019 6.594-0.094c1.7-0.075 2.869-0.35 3.881-0.744 1.050-0.406 1.944-0.956 2.831-1.844s1.438-1.781 1.844-2.831c0.394-1.019 0.669-2.181 0.744-3.881 0.075-1.706 0.094-2.25 0.094-6.594s-0.019-4.887-0.094-6.594c-0.075-1.7-0.35-2.869-0.744-3.881-0.394-1.063-0.938-1.956-1.831-2.844-0.887-0.887-1.781-1.438-2.831-1.844-1.019-0.394-2.181-0.669-3.881-0.744-1.712-0.081-2.256-0.1-6.6-0.1v0z"/> <path d="M16 7.781c-4.537 0-8.219 3.681-8.219 8.219s3.681 8.219 8.219 8.219 8.219-3.681 8.219-8.219c0-4.537-3.681-8.219-8.219-8.219zM16 21.331c-2.944 0-5.331-2.387-5.331-5.331s2.387-5.331 5.331-5.331c2.944 0 5.331 2.387 5.331 5.331s-2.387 5.331-5.331 5.331z"/> <path d="M26.462 7.456c0 1.060-0.859 1.919-1.919 1.919s-1.919-0.859-1.919-1.919c0-1.060 0.859-1.919 1.919-1.919s1.919 0.859 1.919 1.919z"/> 
    </symbol>
    <symbol id="i-linkedin2" viewBox="0 0 32 32">
       <title>linkedin2</title> <path d="M12 12h5.535v2.837h0.079c0.77-1.381 2.655-2.837 5.464-2.837 5.842 0 6.922 3.637 6.922 8.367v9.633h-5.769v-8.54c0-2.037-0.042-4.657-3.001-4.657-3.005 0-3.463 2.218-3.463 4.509v8.688h-5.767v-18z"/> <path d="M2 12h6v18h-6v-18z"/> <path d="M8 7c0 1.657-1.343 3-3 3s-3-1.343-3-3c0-1.657 1.343-3 3-3s3 1.343 3 3z"/> 
    </symbol>
    <symbol id="i-mslogo" viewBox="0 0 1033.746 220.695">
       <title>mslogo</title> <path id="path5056" fill="#666666" d="M1033.745,99.838v-18.18h-22.576V53.395l-0.76,0.234l-21.205,6.487l-0.417,0.128v21.414h-33.469V69.73c0-5.556,1.242-9.807,3.689-12.643c2.432-2.801,5.909-4.225,10.343-4.225c3.188,0,6.49,0.752,9.812,2.232l0.832,0.371V36.32l-0.391-0.143c-3.1-1.114-7.315-1.676-12.539-1.676c-6.585,0-12.568,1.433-17.786,4.273c-5.222,2.844-9.329,6.903-12.205,12.065c-2.868,5.156-4.322,11.111-4.322,17.702v13.115H917.03v18.18h15.721v76.59h22.567v-76.59h33.469v48.672c0,20.045,9.455,30.203,28.101,30.203c3.065,0,6.289-0.359,9.583-1.063c3.352-0.722,5.634-1.443,6.978-2.213l0.298-0.176v-18.348l-0.918,0.607c-1.225,0.816-2.75,1.483-4.539,1.979c-1.796,0.505-3.296,0.758-4.457,0.758c-4.369,0-7.6-1.177-9.606-3.5c-2.027-2.344-3.057-6.443-3.057-12.177V99.838H1033.745L1033.745,99.838z M866.634,160.26c-8.191,0-14.648-2.716-19.2-8.066c-4.578-5.377-6.898-13.043-6.898-22.783c0-10.049,2.32-17.914,6.901-23.387c4.554-5.436,10.95-8.194,19.014-8.194c7.825,0,14.054,2.635,18.515,7.836c4.485,5.228,6.76,13.03,6.76,23.196c0,10.291-2.14,18.196-6.359,23.484C881.175,157.594,874.874,160.26,866.634,160.26 M867.639,79.375c-15.627,0-28.04,4.579-36.889,13.61c-8.844,9.032-13.329,21.531-13.329,37.153c0,14.838,4.378,26.773,13.012,35.468c8.634,8.698,20.384,13.104,34.92,13.104c15.148,0,27.313-4.643,36.16-13.799c8.845-9.146,13.326-21.527,13.326-36.784c0-15.07-4.205-27.094-12.503-35.731C894.035,83.756,882.358,79.375,867.639,79.375 M781.035,79.375c-10.63,0-19.422,2.719-26.14,8.08c-6.758,5.393-10.185,12.466-10.185,21.025c0,4.448,0.739,8.4,2.195,11.752c1.466,3.363,3.733,6.324,6.744,8.809c2.99,2.465,7.603,5.047,13.718,7.674c5.139,2.115,8.973,3.904,11.407,5.314c2.38,1.382,4.07,2.771,5.023,4.124c0.927,1.323,1.398,3.136,1.398,5.372c0,6.367-4.768,9.465-14.579,9.465c-3.639,0-7.79-0.76-12.338-2.258c-4.55-1.496-8.801-3.647-12.634-6.406l-0.936-0.672v21.727l0.344,0.16c3.193,1.474,7.219,2.717,11.963,3.695c4.736,0.979,9.039,1.477,12.778,1.477c11.534,0,20.823-2.732,27.601-8.125c6.821-5.43,10.279-12.67,10.279-21.525c0-6.388-1.861-11.867-5.53-16.284c-3.643-4.382-9.965-8.405-18.785-11.961c-7.026-2.82-11.527-5.161-13.384-6.958c-1.79-1.736-2.698-4.191-2.698-7.3c0-2.756,1.121-4.964,3.425-6.753c2.321-1.797,5.551-2.711,9.604-2.711c3.76,0,7.607,0.594,11.433,1.758c3.824,1.164,7.182,2.723,9.985,4.63l0.921,0.63V83.504l-0.354-0.152c-2.587-1.109-5.996-2.059-10.138-2.828C788.029,79.761,784.288,79.375,781.035,79.375 M685.878,160.26c-8.188,0-14.648-2.716-19.198-8.066c-4.58-5.377-6.896-13.041-6.896-22.783c0-10.049,2.318-17.914,6.901-23.387c4.55-5.436,10.944-8.194,19.013-8.194c7.822,0,14.051,2.635,18.514,7.836c4.484,5.228,6.76,13.03,6.76,23.196c0,10.291-2.142,18.196-6.361,23.484C700.419,157.594,694.12,160.26,685.878,160.26 M686.886,79.375c-15.632,0-28.044,4.579-36.889,13.61c-8.844,9.032-13.331,21.531-13.331,37.153c0,14.844,4.38,26.773,13.014,35.468c8.634,8.698,20.382,13.104,34.92,13.104c15.145,0,27.313-4.643,36.16-13.799c8.842-9.146,13.326-21.527,13.326-36.784c0-15.07-4.207-27.094-12.506-35.731C713.276,83.756,701.604,79.375,686.886,79.375 M602.409,98.07V81.658h-22.293v94.767h22.293v-48.477c0-8.243,1.868-15.015,5.556-20.13c3.642-5.054,8.494-7.615,14.418-7.615c2.007,0,4.261,0.332,6.702,0.986c2.416,0.651,4.166,1.357,5.199,2.102l0.936,0.679V81.496l-0.361-0.155c-2.076-0.882-5.012-1.327-8.729-1.327c-5.602,0-10.615,1.8-14.908,5.344c-3.77,3.115-6.494,7.387-8.577,12.713H602.409L602.409,98.07z M540.195,79.375c-10.226,0-19.349,2.193-27.108,6.516c-7.775,4.333-13.787,10.52-17.879,18.385c-4.072,7.848-6.14,17.014-6.14,27.235c0,8.954,2.005,17.171,5.967,24.413c3.966,7.254,9.578,12.928,16.682,16.865c7.094,3.931,15.293,5.924,24.37,5.924c10.594,0,19.639-2.118,26.892-6.295l0.292-0.168v-20.423l-0.937,0.684c-3.285,2.393-6.956,4.303-10.906,5.679c-3.939,1.375-7.532,2.07-10.681,2.07c-8.748,0-15.769-2.737-20.866-8.133c-5.109-5.403-7.699-12.99-7.699-22.537c0-9.607,2.701-17.389,8.025-23.131c5.306-5.726,12.341-8.629,20.907-8.629c7.327,0,14.468,2.48,21.223,7.381l0.934,0.679V84.371l-0.302-0.17c-2.542-1.423-6.008-2.598-10.313-3.488C548.37,79.824,544.18,79.375,540.195,79.375 M473.715,81.658h-22.293v94.767h22.293V81.658z M462.796,41.287c-3.668,0-6.868,1.249-9.497,3.725c-2.64,2.482-3.98,5.607-3.98,9.295c0,3.629,1.324,6.697,3.938,9.113c2.598,2.408,5.808,3.63,9.54,3.63c3.731,0,6.954-1.222,9.583-3.626c2.646-2.42,3.987-5.488,3.987-9.117c0-3.559-1.305-6.652-3.879-9.195C469.918,42.574,466.656,41.287,462.796,41.287 M407.177,74.667v101.757h22.75V44.189H398.44l-40.022,98.221l-38.839-98.221h-32.769v132.234h21.379V74.657h0.734l41.013,101.767h16.134l40.372-101.757H407.177L407.177,74.667z"/> <path id="path5058" fill="#F1511B" d="M104.867,104.867H0V0h104.867V104.867z"/> <path id="path5060" fill="#80CC28" d="M220.654,104.867H115.787V0h104.867V104.867z"/> <path id="path5062" fill="#00ADEF" d="M104.865,220.695H0V115.828h104.865V220.695z"/> <path id="path5064" fill="#FBBC09" d="M220.654,220.695H115.787V115.828h104.867V220.695z"/>
    </symbol>
    <symbol id="i-odnoklassniki" viewBox="0 0 20 28">
       <title>odnoklassniki</title> <path d="M10 14.172c-3.906 0-7.094-3.172-7.094-7.078 0-3.922 3.187-7.094 7.094-7.094s7.094 3.172 7.094 7.094c0 3.906-3.187 7.078-7.094 7.078zM10 3.594c-1.922 0-3.484 1.563-3.484 3.5 0 1.922 1.563 3.484 3.484 3.484s3.484-1.563 3.484-3.484c0-1.937-1.563-3.5-3.484-3.5zM18.172 15.031c0.688 1.406-0.094 2.078-1.875 3.234-1.5 0.953-3.563 1.328-4.922 1.469l1.141 1.125 4.172 4.172c0.625 0.641 0.625 1.672 0 2.297l-0.187 0.203c-0.641 0.625-1.672 0.625-2.312 0-1.047-1.062-2.578-2.594-4.172-4.188l-4.172 4.188c-0.641 0.625-1.672 0.625-2.297 0l-0.187-0.203c-0.641-0.625-0.641-1.656 0-2.297 1.062-1.062 2.578-2.594 4.172-4.172l1.125-1.125c-1.344-0.141-3.437-0.5-4.953-1.469-1.781-1.156-2.562-1.828-1.875-3.234 0.406-0.797 1.516-1.469 2.984-0.313 0 0 1.984 1.578 5.187 1.578s5.187-1.578 5.187-1.578c1.469-1.156 2.578-0.484 2.984 0.313z"/> 
    </symbol>
    <symbol id="i-twitter" viewBox="0 0 32 32">
       <title>twitter</title> <path d="M32 7.075c-1.175 0.525-2.444 0.875-3.769 1.031 1.356-0.813 2.394-2.1 2.887-3.631-1.269 0.75-2.675 1.3-4.169 1.594-1.2-1.275-2.906-2.069-4.794-2.069-3.625 0-6.563 2.938-6.563 6.563 0 0.512 0.056 1.012 0.169 1.494-5.456-0.275-10.294-2.888-13.531-6.862-0.563 0.969-0.887 2.1-0.887 3.3 0 2.275 1.156 4.287 2.919 5.463-1.075-0.031-2.087-0.331-2.975-0.819 0 0.025 0 0.056 0 0.081 0 3.181 2.263 5.838 5.269 6.437-0.55 0.15-1.131 0.231-1.731 0.231-0.425 0-0.831-0.044-1.237-0.119 0.838 2.606 3.263 4.506 6.131 4.563-2.25 1.762-5.075 2.813-8.156 2.813-0.531 0-1.050-0.031-1.569-0.094 2.913 1.869 6.362 2.95 10.069 2.95 12.075 0 18.681-10.006 18.681-18.681 0-0.287-0.006-0.569-0.019-0.85 1.281-0.919 2.394-2.075 3.275-3.394z"/> 
    </symbol>
    <symbol id="i-vk" viewBox="0 0 31 28">
       <title>vk</title> <path d="M29.953 8.125c0.234 0.641-0.5 2.141-2.344 4.594-3.031 4.031-3.359 3.656-0.859 5.984 2.406 2.234 2.906 3.313 2.984 3.453 0 0 1 1.75-1.109 1.766l-4 0.063c-0.859 0.172-2-0.609-2-0.609-1.5-1.031-2.906-3.703-4-3.359 0 0-1.125 0.359-1.094 2.766 0.016 0.516-0.234 0.797-0.234 0.797s-0.281 0.297-0.828 0.344h-1.797c-3.953 0.25-7.438-3.391-7.438-3.391s-3.813-3.938-7.156-11.797c-0.219-0.516 0.016-0.766 0.016-0.766s0.234-0.297 0.891-0.297l4.281-0.031c0.406 0.063 0.688 0.281 0.688 0.281s0.25 0.172 0.375 0.5c0.703 1.75 1.609 3.344 1.609 3.344 1.563 3.219 2.625 3.766 3.234 3.437 0 0 0.797-0.484 0.625-4.375-0.063-1.406-0.453-2.047-0.453-2.047-0.359-0.484-1.031-0.625-1.328-0.672-0.234-0.031 0.156-0.594 0.672-0.844 0.766-0.375 2.125-0.391 3.734-0.375 1.266 0.016 1.625 0.094 2.109 0.203 1.484 0.359 0.984 1.734 0.984 5.047 0 1.062-0.203 2.547 0.562 3.031 0.328 0.219 1.141 0.031 3.141-3.375 0 0 0.938-1.625 1.672-3.516 0.125-0.344 0.391-0.484 0.391-0.484s0.25-0.141 0.594-0.094l4.5-0.031c1.359-0.172 1.578 0.453 1.578 0.453z"/> 
    </symbol></svg>